<svg width="57" height="54" viewBox="0 0 57 54" fill="none" xmlns="http://www.w3.org/2000/svg">
<path d="M1 1H56V53.4057H1V1Z" fill="white"/>
<rect x="1.81306" y="1.81404" width="53.6351" height="50.656" stroke="#8C5800" stroke-width="2.52427"/>
<path fill-rule="evenodd" clip-rule="evenodd" d="M52.5582 4.49414H4.83105V49.7862H52.5582V4.49414ZM10.1192 9.64099C10.3518 9.42242 10.646 9.32996 11.1784 9.30754C11.3255 9.30194 12.372 9.30194 13.5041 9.30614C14.6375 9.31034 16.3734 9.31455 17.3639 9.31315C19.3394 9.31174 22.175 9.31174 24.7894 9.31315C25.7183 9.31315 27.527 9.31034 28.8103 9.30754C30.7087 9.30334 31.1725 9.30614 31.3042 9.32155C31.9024 9.3916 32.2078 9.61717 32.3605 10.1033C32.4124 10.27 32.4446 10.5264 32.5161 11.3348C32.5511 11.7285 32.6015 12.2455 32.6281 12.4837C32.7038 13.1492 32.715 13.2626 32.7682 13.9464C32.8257 14.6945 32.8383 14.885 32.8663 15.3544C32.9167 16.1866 32.9406 16.443 32.9798 16.5999C33.0386 16.8297 33.1675 16.9628 33.3945 17.0258C33.4772 17.0482 33.6243 17.0496 35.4722 17.0496C37.4995 17.0496 37.6018 17.0524 38.1692 17.1071C38.7576 17.1617 39.4035 17.271 39.7916 17.3803C39.8715 17.4027 40.0788 17.4713 40.2511 17.533C40.412 17.5905 40.6704 17.6822 40.8454 17.7443L40.8816 17.7572C41.4392 17.9561 41.7474 18.0892 42.1397 18.2994C42.7128 18.6076 42.9789 18.7995 43.3754 19.1932C43.8672 19.6836 44.2133 20.0829 44.3884 20.3645C44.7302 20.9137 44.9824 21.5918 45.0973 22.2713C45.1688 22.6986 45.1814 22.8639 45.1814 23.4804C45.1814 24.066 45.1772 24.1332 45.1169 24.5592C44.9922 25.4376 44.6952 26.2684 44.2833 26.8877C44.1236 27.1272 43.5772 27.7997 43.283 28.1192C42.9663 28.4596 42.6063 28.7286 41.7208 29.2806C41.1268 29.6519 41.0049 29.7808 41.1198 29.9181C41.1772 29.9853 41.3145 30.047 41.7376 30.1899C42.3779 30.4071 42.6483 30.5233 43.5071 30.9549C44.4809 31.4452 44.6308 31.5489 45.3019 32.192C45.9463 32.8098 46.1453 33.0634 46.4255 33.6238C46.6987 34.1716 46.9158 34.7573 47.0658 35.3541C47.1806 35.808 47.2129 36.105 47.2129 36.6991C47.2129 37.2777 47.1778 37.642 47.0854 38.0553C46.9971 38.449 46.7463 39.2139 46.5404 39.7099C46.2293 40.465 45.7642 41.1375 45.1239 41.7568C44.5243 42.3368 43.6683 42.9645 43.0658 43.2657C42.7758 43.4114 42.2714 43.6202 41.3776 43.9634C40.6042 44.2604 40.0662 44.3935 39.1597 44.5098C39.0649 44.5219 38.9906 44.5323 38.916 44.5411C38.4564 44.5956 37.99 44.5925 32.6772 44.5925C28.1616 44.5939 27.017 44.5897 26.8769 44.5757C26.5 44.5364 26.2563 44.4482 26.0937 44.2913C25.8528 44.0601 25.8556 43.7154 26.0979 43.4717C26.2619 43.3091 26.437 43.2391 26.9329 43.1368C27.3168 43.0584 27.4653 43.0191 27.6489 42.9477C28.0229 42.802 28.2905 42.5946 28.4909 42.2962C28.7165 41.9585 28.8299 41.6503 28.8902 41.2104C28.9126 41.0493 28.914 40.6346 28.9224 35.8725C28.9308 31.2211 28.9336 30.6985 28.9532 30.5934C29.0457 30.1198 29.2531 29.8691 29.6692 29.729C29.907 29.6492 29.9269 29.6491 31.2989 29.6421L31.3042 29.6421C32.0705 29.6379 32.8579 29.6421 33.2936 29.6519C34.287 29.6743 34.4537 29.6589 34.5812 29.5314L34.6414 29.4698L34.6358 29.3759C34.6288 29.2428 34.57 29.1293 34.3444 28.8043C34.2435 28.6572 34.0418 28.3391 33.8961 28.0968C33.6271 27.647 33.5654 27.5546 33.1731 27.0082C33.0512 26.8372 32.7963 26.4505 32.6071 26.1493C32.0327 25.2316 31.9949 25.1728 31.7861 24.8856C31.4681 24.4499 31.3714 24.3056 31.15 23.9357C30.8782 23.4818 30.853 23.4439 30.5854 23.0699C30.4607 22.8947 30.3094 22.6762 30.2492 22.5837C29.6972 21.7361 29.5122 21.4489 29.3525 21.1855C29.0065 20.6139 28.9883 20.5886 28.2863 19.6485C28.0243 19.2983 27.8184 19.0993 27.5466 18.9354C27.3673 18.8289 27.0576 18.6832 26.7928 18.5838C26.3277 18.4072 26.126 18.2727 26.0181 18.0682C25.8191 17.6913 26.0209 17.2766 26.472 17.1337C26.5065 17.1228 26.5359 17.1134 26.5656 17.1052C26.7609 17.0512 26.9712 17.0511 28.7823 17.0426L28.81 17.0425C30.6642 17.0342 30.6966 17.0341 30.7886 17.0048C31.0408 16.9277 31.1192 16.775 31.0828 16.4374C31.0506 16.1502 30.8194 15.2997 30.6695 14.9201C30.5966 14.7351 30.2926 14.1215 30.0713 13.7152C29.763 13.1464 29.3217 12.5229 29.0065 12.2091C28.6002 11.8042 27.8478 11.3222 27.1221 11.0042C26.7172 10.8263 26.2464 10.7058 25.7281 10.6469C25.4997 10.6203 24.4433 10.5923 24.1659 10.6049C23.9403 10.6147 23.8199 10.6385 23.7218 10.6918C23.5761 10.7716 23.4836 10.9285 23.4584 11.1401C23.4388 11.3068 23.4388 32.999 23.4584 33.3184C23.4808 33.6897 23.5354 33.9124 23.6699 34.1786C23.7722 34.3846 23.9025 34.5667 24.0678 34.732C24.4433 35.1131 24.8062 35.2406 25.8191 35.3471C26.3543 35.4045 26.5435 35.4536 26.7242 35.5867C26.8195 35.6567 26.9077 35.7814 26.94 35.8921C27.0002 36.0924 26.9301 36.3208 26.7606 36.4749C26.6443 36.5828 26.4006 36.6669 26.1203 36.6977C25.7869 36.7341 24.4671 36.7439 20.5723 36.7369C16.725 36.7299 16.3356 36.7257 16.0652 36.6851C15.7247 36.6332 15.4879 36.4903 15.3801 36.2718C15.3436 36.1961 15.3394 36.1737 15.3394 36.0476C15.3394 35.9187 15.3436 35.8991 15.3843 35.8136C15.4599 35.6525 15.607 35.5334 15.82 35.4592C15.9741 35.4059 16.089 35.3849 16.4883 35.3387C17.4942 35.2252 17.8501 35.0949 18.2466 34.697C18.5828 34.3594 18.7439 33.9993 18.7916 33.4767C18.8028 33.366 18.807 29.8831 18.807 22.2404C18.807 12.7429 18.8042 11.1513 18.7874 11.0714C18.7341 10.8235 18.5996 10.6862 18.353 10.6287C18.2662 10.6077 18.1583 10.6063 17.49 10.6091C16.4813 10.6133 16.1912 10.6357 15.7121 10.7464C15.062 10.8977 14.5647 11.1275 13.9328 11.5688C13.4396 11.9135 13.1608 12.1768 12.8596 12.5747C12.5528 12.9824 12.253 13.4784 11.9559 14.071C11.729 14.5264 11.5987 14.8612 11.4796 15.3082C11.4596 15.3811 11.4337 15.4772 11.4106 15.563C11.3964 15.6157 11.3832 15.6646 11.3731 15.7018C11.3213 15.891 11.2526 16.195 11.1503 16.6924C11.0439 17.2051 10.9486 17.4447 10.7735 17.6283C10.6656 17.7417 10.5409 17.823 10.4008 17.8706C10.2761 17.9127 10.0239 17.9169 9.91043 17.8776C9.57278 17.7614 9.39205 17.5204 9.31919 17.0917C9.29538 16.9502 9.29538 16.4122 9.31919 16.132C9.329 16.0199 9.35282 15.692 9.37103 15.4034C9.64003 11.304 9.68626 10.7268 9.77873 10.3107C9.84458 10.0067 9.94966 9.8007 10.1192 9.64099ZM37.3454 18.9256C36.7472 18.6566 36.1854 18.5417 35.3447 18.5151C34.7479 18.4955 33.7363 18.4871 33.6313 18.5011C33.5164 18.5151 33.3945 18.5754 33.3539 18.6384C33.3132 18.6986 33.3104 18.8149 33.3483 18.9242C33.4113 19.1063 33.6145 19.4412 33.8821 19.8027C34.0586 20.0408 34.2239 20.293 34.4565 20.6783C34.7241 21.121 34.8964 21.3872 35.1668 21.7711C35.5801 22.3623 35.8477 22.7869 36.2918 23.5574C36.4992 23.9203 36.7135 24.2509 36.9895 24.639C37.2095 24.95 37.6116 25.5833 37.8876 26.0583C38.0711 26.3721 38.221 26.5963 38.4732 26.9395C38.7506 27.3164 38.8235 27.399 38.9146 27.4439C39.0014 27.4873 39.0491 27.4901 39.1205 27.4523C39.2942 27.364 39.461 27.0054 39.6249 26.3721C39.8084 25.6632 39.8631 25.2064 39.8743 24.2902C39.8841 23.4902 39.8546 23.0278 39.758 22.4366C39.6669 21.8762 39.4413 21.149 39.2452 20.7834C39.0603 20.4387 38.6414 19.8937 38.2897 19.5421C38.0165 19.2703 37.8007 19.1288 37.3454 18.9256ZM37.4687 31.1538C36.9783 31.0529 36.6841 31.0305 35.6403 31.0109C34.0768 30.9829 33.9213 30.9955 33.7349 31.1664C33.6677 31.2281 33.6131 31.3401 33.5766 31.483C33.5556 31.5713 33.5528 31.9244 33.5486 35.8515C33.5444 40.1526 33.55 40.8349 33.5934 41.1992C33.6495 41.6615 33.7728 42.0398 33.9591 42.3242C34.0376 42.4461 34.3164 42.7193 34.4495 42.8062C34.9216 43.1144 35.4414 43.1999 36.2708 43.1032C37.4085 42.9701 38.371 42.7179 39.1289 42.3522C39.4652 42.1897 39.6557 42.0552 40.1657 41.6167C40.7527 41.1109 40.9152 40.9092 41.2024 40.3207C41.4476 39.8206 41.5583 39.4829 41.6774 38.8777C41.7853 38.3271 41.8119 38.0273 41.8119 37.3968C41.8119 36.8042 41.7797 36.3222 41.7124 35.8865C41.5891 35.0865 41.4939 34.7166 41.2627 34.1352C41.0876 33.6995 40.9068 33.3758 40.6841 33.0984C40.5383 32.9177 40.317 32.6725 40.1629 32.5226C39.7748 32.1415 39.5226 31.9762 38.8515 31.6596C38.1804 31.3429 37.9114 31.2435 37.4687 31.1538Z" fill="#8C5800"/>
<path d="M9.04297 18.9009L9.82127 10.8584L11.3779 15.5282L10.859 18.9009H9.04297Z" fill="white"/>
<path d="M15.0098 35.5564L17.0852 35.2451V35.5564L19.939 36.5423L15.0098 36.8017V35.5564Z" fill="white"/>
<path d="M25.3867 43.3396L27.4622 43.0283V43.3396L31.0943 44.5849H25.3867V43.3396Z" fill="white"/>
<path d="M25.3867 18.3303L27.4622 18.6416V18.3303L31.0943 17.085H25.3867V18.3303Z" fill="white"/>
<path d="M27.2031 35.5564L25.1277 35.2451V35.5564L22.2739 36.5423L27.2031 36.8017V35.5564Z" fill="white"/>
</svg>
