<svg width="20" height="20" viewBox="0 0 20 20" fill="none" xmlns="http://www.w3.org/2000/svg">
<g clip-path="url(#clip0_6_483)">
<path fill-rule="evenodd" clip-rule="evenodd" d="M10 20C4.486 20 0 15.514 0 10C0 4.486 4.486 0 10 0C15.514 0 20 4.486 20 10C20 15.514 15.514 20 10 20ZM11 5C11 4.44772 10.5523 4 10 4C9.44772 4 9 4.44772 9 5V5.1706C7.83462 5.58229 7 6.69338 7 8C7 9.01344 7.35979 9.76984 8.025 10.2688C8.56526 10.6739 9.23974 10.8415 9.69136 10.9537L9.75746 10.9701C10.3076 11.1077 10.5923 11.1942 10.775 11.3313C10.8598 11.3948 11 11.5134 11 12C11 12.5473 10.5615 12.9911 10.0164 12.9999C10.0078 12.9992 9.99193 12.9976 9.96955 12.9944C9.91271 12.9863 9.81561 12.9678 9.69123 12.9263C9.44593 12.8446 9.08494 12.6707 8.70711 12.2929C8.31658 11.9024 7.68342 11.9024 7.29289 12.2929C6.90237 12.6834 6.90237 13.3166 7.29289 13.7071C7.89115 14.3054 8.50498 14.6299 9 14.8036V15C9 15.5523 9.44772 16 10 16C10.5523 16 11 15.5523 11 15V14.8294C12.1654 14.4177 13 13.3066 13 12C13 10.9866 12.6402 10.2302 11.975 9.73125C11.4347 9.32606 10.7603 9.15851 10.3086 9.04632L10.2425 9.02986C9.6924 8.89232 9.40769 8.80577 9.225 8.66875C9.14021 8.60516 9 8.48656 9 8C9 7.45275 9.43848 7.00885 9.98364 7.00013C9.99218 7.00083 10.0081 7.00238 10.0305 7.00557C10.0873 7.01369 10.1844 7.03222 10.3088 7.07368C10.5541 7.15545 10.9151 7.32927 11.2929 7.70711C11.6834 8.09763 12.3166 8.09763 12.7071 7.70711C13.0976 7.31658 13.0976 6.68342 12.7071 6.29289C12.1089 5.69464 11.495 5.37006 11 5.19642V5Z" fill="#5C5F62"/>
</g>
<defs>
<clipPath id="clip0_6_483">
<rect width="20" height="20" fill="white"/>
</clipPath>
</defs>
</svg>
