<svg width="20" height="20" viewBox="0 0 20 20" fill="none" xmlns="http://www.w3.org/2000/svg">
<path d="M14.3628 5.21918C14.3628 7.54936 12.4738 9.43835 10.1436 9.43835C7.81343 9.43835 5.92444 7.54936 5.92444 5.21918C5.92444 2.88899 7.81343 1 10.1436 1C12.4738 1 14.3628 2.88899 14.3628 5.21918Z" fill="#5C5F62"/>
<path d="M2.66954 14.469C4.05467 13.3796 6.81128 11.6164 10.1436 11.6164C13.4759 11.6164 16.2326 13.3796 17.6177 14.469C18.236 14.9552 18.4288 15.7772 18.1847 16.5249L17.8515 17.5452C17.5682 18.4129 16.7589 19 15.8461 19H4.4411C3.5283 19 2.71904 18.4129 2.43571 17.5452L2.10256 16.5249C1.8584 15.7772 2.05127 14.9552 2.66954 14.469Z" fill="#5C5F62"/>
</svg>
