<svg width="20" height="20" viewBox="0 0 20 20" fill="none" xmlns="http://www.w3.org/2000/svg">
<path fill-rule="evenodd" clip-rule="evenodd" d="M17.1 14.9496C17.5125 15.1096 18 14.8696 18 14.4996V1.50038C18 1.13041 17.5125 0.89042 17.1 1.05041C16.4174 1.46051 15.7888 1.88073 15.1813 2.28689C13.0414 3.71759 11.1623 4.97396 8.09725 5L4 5.00041C2.34 5.00041 1 6.34041 1 8.00041C1 9.66041 2.34 11.0004 4 11.0004H8C11.1232 11.0004 13.0195 12.268 15.1823 13.7138C15.7895 14.1197 16.4177 14.5397 17.1 14.9496ZM9.00001 18.0004H8.21001C7.78001 18.0004 7.40001 17.7304 7.27001 17.3304L5.07001 13.0004H9.00001C9.55229 13.0004 10 13.4481 10 14.0004V17.0004C10 17.5504 9.55001 18.0004 9.00001 18.0004Z" fill="#5C5F62"/>
</svg>
