<svg width="20" height="20" viewBox="0 0 20 20" fill="none" xmlns="http://www.w3.org/2000/svg">
<g clip-path="url(#clip0_6_20)">
<path d="M13 4H16V6H13V4Z" fill="#5C5F62"/>
<path d="M13 8H16V10H13V8Z" fill="#5C5F62"/>
<path d="M7 4H4V6H7V4Z" fill="#5C5F62"/>
<path d="M7 8H4V10H7V8Z" fill="#5C5F62"/>
<path d="M7 12H4V14H7V12Z" fill="#5C5F62"/>
<path fill-rule="evenodd" clip-rule="evenodd" d="M18.5 1.18894e-06C19.3284 1.18894e-06 20 0.671575 20 1.5V16.5C20 17.3284 19.3284 18 18.5 18H12C11.7348 18 11.4804 18.1054 11.2929 18.2929C11.1054 18.4804 11 18.7348 11 19C11 19.2652 10.8946 19.5196 10.7071 19.7071C10.5196 19.8946 10.2652 20 10 20C9.73478 20 9.48043 19.8946 9.29289 19.7071C9.10536 19.5196 9 19.2652 9 19C9 18.7348 8.89464 18.4804 8.70711 18.2929C8.51957 18.1054 8.26522 18 8 18H1.5C0.671573 18 0 17.3284 0 16.5V1.5C0 0.671575 0.671573 1.18894e-06 1.5 1.18894e-06H8C8.73843 -0.000657301 9.45094 0.272231 10 0.766002C10.531 0.290002 11.232 1.18894e-06 12 1.18894e-06H18.5ZM12 16H18V2H12C11.7348 2 11.4804 2.10536 11.2929 2.2929C11.1054 2.48043 11 2.73479 11 3V16.179C11.313 16.067 11.648 16 12 16ZM2 16H8C8.34116 16.0016 8.67948 16.0621 9 16.179V3C9 2.73479 8.89464 2.48043 8.70711 2.2929C8.51957 2.10536 8.26522 2 8 2H2V16Z" fill="#5C5F62"/>
</g>
<defs>
<clipPath id="clip0_6_20">
<rect width="20" height="20" fill="white"/>
</clipPath>
</defs>
</svg>
