<svg width="263" height="337" viewBox="0 0 263 337" fill="none" xmlns="http://www.w3.org/2000/svg">
<path d="M134 163L40 167" stroke="#8C5800" stroke-width="5" stroke-linecap="round"/>
<path d="M135 163L259 174" stroke="#8C5800" stroke-width="5" stroke-linecap="round"/>
<path d="M260 174L235 290" stroke="#8C5800" stroke-width="5" stroke-linecap="round"/>
<path d="M235 290L132 308" stroke="#8C5800" stroke-width="5" stroke-linecap="round"/>
<path d="M132 307V184" stroke="#8C5800" stroke-width="5" stroke-linecap="round"/>
<path d="M132 185L259 175" stroke="#8C5800" stroke-width="5" stroke-linecap="round"/>
<path d="M132 185L40 167" stroke="#8C5800" stroke-width="5" stroke-linecap="round"/>
<path d="M38 167L44 259" stroke="#8C5800" stroke-width="5" stroke-linecap="round"/>
<path d="M44 259L132 308" stroke="#8C5800" stroke-width="5" stroke-linecap="round"/>
<path d="M133 163V183" stroke="#8C5800" stroke-width="5" stroke-linecap="round"/>
<path d="M206.9 211.106L186.696 212.356C182.01 212.646 178.447 216.679 178.737 221.365L178.922 224.355C179.211 229.04 183.245 232.604 187.93 232.314L208.135 231.064C212.82 230.775 216.383 226.741 216.094 222.056L215.909 219.066C215.619 214.38 211.586 210.817 206.9 211.106Z" stroke="#8C5800" stroke-width="3"/>
<path d="M131.281 334L41.5 260.5L131.5 310.5L237.5 292L247.5 293.5L131.281 334Z" fill="#8C5800" fill-opacity="0.26"/>
<path d="M102.767 41.692C100.234 42.0087 98.334 42.8003 98.334 43.4337C98.334 44.067 112.267 44.542 129.209 44.542C158.817 44.542 165.942 43.7503 155.176 41.5337C149.792 40.5837 109.892 40.5837 102.767 41.692Z" fill="#8C5800"/>
<path d="M94.8504 74.9417C95.3254 95.3667 96.2754 106.767 97.3837 107.4C98.3337 108.033 107.675 108.667 118.125 108.667C135.542 108.667 148.05 109.933 161.35 112.783L166.417 113.733V94.1001C166.417 68.6084 164.675 45.3334 162.934 45.3334C162.142 45.3334 161.984 58.9501 162.617 78.1084C163.725 109.933 163.725 110.725 160.717 109.617C156.284 107.875 138.234 105.817 117.017 104.55L98.3337 103.6V82.0667C98.3337 58.9501 97.0671 43.7501 95.1671 43.7501C94.5337 43.7501 94.3754 57.8417 94.8504 74.9417Z" fill="#8C5800"/>
<path d="M106.884 57.208C103.4 62.433 105.142 68.7663 110.209 70.033C115.592 71.2997 122.084 67.0247 122.084 61.958C122.084 53.408 111.634 50.083 106.884 57.208ZM118.125 59.108C118.759 61.008 117.967 62.908 115.75 64.6497C111.95 67.658 107.834 66.8663 107.834 62.908C107.834 56.8913 116.067 53.883 118.125 59.108Z" fill="#8C5800"/>
<path d="M130.001 74.6247C123.826 82.858 123.192 83.333 120.659 81.1163C119.076 79.6913 117.176 78.583 116.384 78.583C112.901 78.583 103.084 91.5663 103.084 95.8413C103.084 96.9497 111.792 97.583 129.209 97.583C150.742 97.583 155.651 97.108 156.284 95.208C157.076 93.1497 141.559 68.9247 137.917 66.708C137.126 66.233 133.484 69.8747 130.001 74.6247ZM146.467 83.333L153.751 93.6247L141.876 94.0997C135.384 94.4163 124.617 94.4163 118.126 94.0997L106.251 93.6247L111.317 87.4497L116.384 81.2747L119.076 84.758C120.501 86.4997 122.401 88.083 123.192 88.083C124.142 88.083 127.467 84.1247 130.792 79.3747C134.117 74.4663 137.442 71.1413 138.076 71.7747C138.709 72.408 142.509 77.633 146.467 83.333Z" fill="#8C5800"/>
</svg>
