<svg width="263" height="337" viewBox="0 0 263 337" fill="none" xmlns="http://www.w3.org/2000/svg">
<path d="M134 163L40 167" stroke="#8C5800" stroke-width="5" stroke-linecap="round"/>
<path d="M135 163L259 174" stroke="#8C5800" stroke-width="5" stroke-linecap="round"/>
<path d="M260 174L235 290" stroke="#8C5800" stroke-width="5" stroke-linecap="round"/>
<path d="M235 290L132 308" stroke="#8C5800" stroke-width="5" stroke-linecap="round"/>
<path d="M132 307V184" stroke="#8C5800" stroke-width="5" stroke-linecap="round"/>
<path d="M132 185L259 175" stroke="#8C5800" stroke-width="5" stroke-linecap="round"/>
<path d="M132 185L40 167" stroke="#8C5800" stroke-width="5" stroke-linecap="round"/>
<path d="M38 167L44 259" stroke="#8C5800" stroke-width="5" stroke-linecap="round"/>
<path d="M44 259L132 308" stroke="#8C5800" stroke-width="5" stroke-linecap="round"/>
<path d="M133 163V183" stroke="#8C5800" stroke-width="5" stroke-linecap="round"/>
<path d="M206.9 211.106L186.696 212.356C182.01 212.646 178.447 216.679 178.737 221.365L178.922 224.355C179.211 229.04 183.245 232.604 187.93 232.314L208.135 231.064C212.82 230.775 216.383 226.741 216.094 222.056L215.909 219.066C215.619 214.38 211.586 210.817 206.9 211.106Z" stroke="#8C5800" stroke-width="3"/>
<path d="M131.281 334L41.5 260.5L131.5 310.5L237.5 292L247.5 293.5L131.281 334Z" fill="#8C5800" fill-opacity="0.26"/>
<path d="M113.604 28.9475C101.531 32.9059 90.8438 42.208 84.3125 54.4788C80.1563 62.5934 79.1667 67.3434 78.9688 78.6246C78.9688 90.4996 79.7604 93.6663 84.3125 100.593C91.8333 111.875 104.698 117.812 118.552 116.427C141.313 114.052 162.292 98.8121 167.042 80.9996C170.01 70.51 168.625 54.4788 163.875 44.7809C156.552 29.1455 134.385 22.2184 113.604 28.9475ZM146.458 33.6975C156.75 38.4475 163.083 48.3434 164.469 62.5934C166.646 83.5725 155.167 100.395 132.604 108.906C118.354 114.25 110.635 114.25 99.75 108.708C79.5625 98.4163 76.1979 70.3121 92.625 48.7392C105.49 31.9163 128.448 25.583 146.458 33.6975Z" fill="#8C5800"/>
<path d="M108.657 53.0932C108.063 55.0724 106.875 63.7807 106.282 72.4891C105.292 85.9474 105.688 88.7182 108.657 91.2911C111.625 93.8641 113.604 93.2703 127.063 86.3432C146.063 76.2495 148.24 72.8849 140.323 66.1557C130.625 58.0411 116.969 49.7286 113.407 49.7286C111.625 49.7286 109.448 51.312 108.657 53.0932ZM129.042 62.7911C135.771 67.7391 140.719 72.687 140.125 73.6766C139.532 74.6661 132.802 78.6245 125.282 82.3849C108.854 90.6974 108.459 90.3016 110.636 68.5307C111.427 58.8328 112.813 53.687 114.396 53.687C115.782 53.687 122.313 57.8432 129.042 62.7911Z" fill="#8C5800"/>
</svg>
