<svg width="504" height="160" viewBox="0 0 504 160" fill="none" xmlns="http://www.w3.org/2000/svg">
<g clip-path="url(#clip0_690_2769)">
<path d="M168.89 159.47V0L-0.00999451 0V159.47H168.89Z" fill="#A67B3A"/>
<path d="M159.37 149.95V9.52979L9.51999 9.52979V149.95H159.37Z" fill="white"/>
<path d="M152.23 16.6699H16.67V142.81H152.23V16.6699Z" fill="#A67B3A"/>
<path d="M114.23 90.5301C114.23 90.5301 131.86 86.8801 131.86 72.9001C131.86 58.9201 118.08 55.0801 111 55.0801H96.87L95.31 32.6201H33.84L32.24 55.6201H34.9C34.9 55.6201 37.18 43.6901 41.29 39.3801C43.8653 36.7747 47.2659 35.1451 50.91 34.7701H59.52V98.4501C59.5523 99.5923 59.3538 100.729 58.9362 101.793C58.5187 102.857 57.8907 103.825 57.09 104.64C56.8774 104.84 56.6501 105.024 56.41 105.19C54.51 106.48 49.8 106.56 48.28 106.56V108.16H80.88V106.56C79.36 106.56 74.65 106.48 72.75 105.19C72.508 105.027 72.2805 104.843 72.07 104.64C71.266 103.827 70.6353 102.859 70.2159 101.795C69.7965 100.731 69.5972 99.5932 69.63 98.4501V34.8001H78.24C81.887 35.1753 85.2907 36.8047 87.87 39.4101C91.44 43.1601 93.62 52.6701 94.13 55.0801H78.56V56.9001C78.56 56.9001 81.56 56.2901 83.12 57.5901C84.68 58.8901 105.42 90.3701 105.42 90.3701H87.56V122.37C87.56 122.37 86.78 128.27 82.17 128.32H78.56V130.12H115.4C115.4 130.12 136.93 127.91 136.93 108.86C136.93 91.5901 114.23 90.5301 114.23 90.5301ZM95.64 56.5301C96.7 56.5301 100.43 56.5901 105 56.6201C107.168 56.6029 109.305 57.1383 111.208 58.1758C113.112 59.2133 114.72 60.7188 115.88 62.5501C117.368 65.1073 118.33 67.936 118.71 70.8701C119.385 76.2364 118.021 81.6604 114.89 86.0701L95.64 56.5301ZM105.93 128.77C104.075 128.842 102.262 128.208 100.855 126.997C99.4486 125.785 98.5535 124.085 98.35 122.24V91.8201H107C108.17 91.8201 116.3 91.9101 121.11 98.2301C123.336 101.316 124.463 105.059 124.31 108.86C124.27 125.43 112.87 128.77 105.93 128.77Z" fill="white"/>
<path d="M229.35 54.0498H225.07V112.78H218.51V54.0498H214.23V48.0498H229.35V54.0498Z" fill="black"/>
<path d="M242.45 48.0801V112.78H235.9V48.0801H242.45Z" fill="black"/>
<path d="M249 48.0898H257.14C263.14 48.0898 264.87 50.2998 264.87 54.9198V74.0898C264.87 76.6398 264.34 78.1898 262.87 79.0898C264.61 79.8698 265.32 81.3698 265.32 84.0098V106.01C265.32 110.63 263.14 112.84 257.18 112.84H249V48.0898ZM257.14 76.0898C258.14 76.0898 258.73 75.6998 258.73 74.4998V55.6498C258.73 54.4498 258.17 54.0598 257.14 54.0598H255.55V76.0598L257.14 76.0898ZM257.14 106.85C258.14 106.85 258.73 106.46 258.73 105.26V83.6098C258.73 82.4098 258.17 82.0198 257.14 82.0198H255.55V106.81L257.14 106.85Z" fill="black"/>
<path d="M271.2 48.0898H284.62V54.0898H277.75V76.0898H283.75V82.0898H277.75V106.88H284.69V112.88H271.2V48.0898Z" fill="black"/>
<path d="M304.33 54.0498H300.05V112.78H293.49V54.0498H289.21V48.0498H304.33V54.0498Z" fill="black"/>
<path d="M332.61 112.79L330.09 86.0998H329V112.79H322.45V48.0898H330.59C336.59 48.0898 338.74 50.2998 338.74 54.9198V79.2698C338.74 81.9298 338.01 83.7898 336.26 84.8898L339.19 112.78L332.61 112.79ZM329 80.1298H330.59C331.59 80.1298 332.18 79.7398 332.18 78.5398V55.6498C332.18 54.4498 331.62 54.0598 330.59 54.0598H329V80.1298Z" fill="black"/>
<path d="M343.44 48.0898H356.87V54.0898H350V76.0898H356V82.0898H350V106.88H356.94V112.88H343.44V48.0898Z" fill="black"/>
<path d="M372.13 94.7001H368.9L368 112.78H361.1L367.56 48.0801H373.56L380.02 112.78H373.09L372.13 94.7001ZM371.83 88.7001L370.52 63.0001L369.2 88.7301L371.83 88.7001Z" fill="black"/>
<path d="M397.75 106.81V112.81H385.16V48.0801H391.71V106.81H397.75Z" fill="black"/>
<path d="M414.4 54.0498H410.12V112.78H403.57V54.0498H399.28V48.0498H414.4V54.0498Z" fill="black"/>
<path d="M430.67 91.1201V112.78H424.12V91.1201L417.94 48.1201H424.87L427.39 81.4101L430 48.0801H436.9L430.67 91.1201Z" fill="black"/>
<path d="M450.79 106.78V54.0898C450.79 49.4698 452.96 47.2598 458.93 47.2598C464.9 47.2598 467.07 49.4698 467.07 54.0898V70.6198H460.52V54.8198C460.52 53.6198 459.96 53.2298 458.93 53.2298C457.9 53.2298 457.34 53.6198 457.34 54.8198V106.05C457.34 107.25 457.9 107.64 458.93 107.64C459.96 107.64 460.52 107.25 460.52 106.05V90.2498H467.07V106.78C467.07 111.4 464.9 113.61 458.93 113.61C452.96 113.61 450.79 111.4 450.79 106.78Z" fill="black"/>
<path d="M490.29 54.09V106.78C490.29 111.4 488.12 113.61 482.15 113.61C476.18 113.61 474 111.4 474 106.78V54.09C474 49.47 476.17 47.25 482.14 47.25C488.11 47.25 490.29 49.47 490.29 54.09ZM482.15 53.22C481.15 53.22 480.56 53.62 480.56 54.81V106.05C480.56 107.25 481.12 107.64 482.15 107.64C483.18 107.64 483.74 107.25 483.74 106.05V54.81C483.74 53.62 483.18 53.22 482.15 53.22Z" fill="black"/>
<path d="M497.45 105.6H504V112.78H497.45V105.6Z" fill="black"/>
</g>
<defs>
<clipPath id="clip0_690_2769">
<rect width="504" height="159.47" fill="white"/>
</clipPath>
</defs>
</svg>
