<svg width="504" height="160" viewBox="0 0 504 160" fill="none" xmlns="http://www.w3.org/2000/svg">
<g clip-path="url(#clip0_690_2723)">
<path d="M168.89 159.47V0L-0.00999451 0V159.47H168.89Z" fill="#A67B3A"/>
<path d="M159.37 149.95V9.52979L9.51999 9.52979V149.95H159.37Z" fill="white"/>
<path d="M152.23 16.6699H16.67V142.81H152.23V16.6699Z" fill="#A67B3A"/>
<path d="M114.23 90.5301C114.23 90.5301 131.86 86.8801 131.86 72.9001C131.86 58.9201 118.08 55.0801 111 55.0801H96.87L95.31 32.6201H33.84L32.24 55.6201H34.9C34.9 55.6201 37.18 43.6901 41.29 39.3801C43.8653 36.7747 47.2659 35.1451 50.91 34.7701H59.52V98.4501C59.5523 99.5923 59.3538 100.729 58.9362 101.793C58.5187 102.857 57.8907 103.825 57.09 104.64C56.8774 104.84 56.6501 105.024 56.41 105.19C54.51 106.48 49.8 106.56 48.28 106.56V108.16H80.88V106.56C79.36 106.56 74.65 106.48 72.75 105.19C72.508 105.027 72.2805 104.843 72.07 104.64C71.266 103.827 70.6353 102.859 70.2159 101.795C69.7965 100.731 69.5972 99.5932 69.63 98.4501V34.8001H78.24C81.887 35.1753 85.2907 36.8047 87.87 39.4101C91.44 43.1601 93.62 52.6701 94.13 55.0801H78.56V56.9001C78.56 56.9001 81.56 56.2901 83.12 57.5901C84.68 58.8901 105.42 90.3701 105.42 90.3701H87.56V122.37C87.56 122.37 86.78 128.27 82.17 128.32H78.56V130.12H115.4C115.4 130.12 136.93 127.91 136.93 108.86C136.93 91.5901 114.23 90.5301 114.23 90.5301ZM95.64 56.5301C96.7 56.5301 100.43 56.5901 105 56.6201C107.168 56.6029 109.305 57.1383 111.208 58.1758C113.112 59.2133 114.72 60.7188 115.88 62.5501C117.368 65.1073 118.33 67.936 118.71 70.8701C119.385 76.2364 118.021 81.6604 114.89 86.0701L95.64 56.5301ZM105.93 128.77C104.075 128.842 102.262 128.208 100.855 126.997C99.4486 125.785 98.5535 124.085 98.35 122.24V91.8201H107C108.17 91.8201 116.3 91.9101 121.11 98.2301C123.336 101.316 124.463 105.059 124.31 108.86C124.27 125.43 112.87 128.77 105.93 128.77Z" fill="white"/>
<path d="M222.12 16.7998H217.84V75.5298H211.28V16.7998H207V10.7998H222.12V16.7998Z" fill="black"/>
<path d="M235.22 10.8301V75.5301H228.67V10.8301H235.22Z" fill="black"/>
<path d="M241.77 10.8398H249.91C255.91 10.8398 257.64 13.0498 257.64 17.6698V36.8398C257.64 39.3898 257.11 40.9398 255.64 41.8398C257.38 42.6198 258.09 44.1198 258.09 46.7598V68.7598C258.09 73.3798 255.91 75.5898 249.95 75.5898H241.77V10.8398ZM249.91 38.8398C250.91 38.8398 251.5 38.4498 251.5 37.2498V18.3998C251.5 17.1998 250.94 16.8098 249.91 16.8098H248.32V38.8098L249.91 38.8398ZM249.91 69.5998C250.91 69.5998 251.5 69.2098 251.5 68.0098V46.3598C251.5 45.1598 250.94 44.7698 249.91 44.7698H248.32V69.5598L249.91 69.5998Z" fill="black"/>
<path d="M263.97 10.8398H277.39V16.8398H270.52V38.8398H276.52V44.8398H270.52V69.6298H277.46V75.6298H263.97V10.8398Z" fill="black"/>
<path d="M297.1 16.7998H292.82V75.5298H286.26V16.7998H281.98V10.7998H297.1V16.7998Z" fill="black"/>
<path d="M325.38 75.5398L322.86 48.8498H321.77V75.5398H315.22V10.8398H323.36C329.36 10.8398 331.51 13.0498 331.51 17.6698V42.0198C331.51 44.6798 330.78 46.5398 329.03 47.6398L331.96 75.5298L325.38 75.5398ZM321.77 42.8798H323.36C324.36 42.8798 324.95 42.4898 324.95 41.2898V18.3998C324.95 17.1998 324.39 16.8098 323.36 16.8098H321.77V42.8798Z" fill="black"/>
<path d="M336.21 10.8398H349.64V16.8398H342.77V38.8398H348.77V44.8398H342.77V69.6298H349.71V75.6298H336.21V10.8398Z" fill="black"/>
<path d="M364.9 57.4501H361.67L360.77 75.5301H353.87L360.33 10.8301H366.33L372.79 75.5301H365.86L364.9 57.4501ZM364.6 51.4501L363.29 25.7501L361.97 51.4801L364.6 51.4501Z" fill="black"/>
<path d="M390.52 69.5601V75.5601H377.93V10.8301H384.48V69.5601H390.52Z" fill="black"/>
<path d="M407.17 16.7998H402.89V75.5298H396.34V16.7998H392.05V10.7998H407.17V16.7998Z" fill="black"/>
<path d="M423.44 53.8701V75.5301H416.89V53.8701L410.71 10.8701H417.64L420.16 44.1601L422.77 10.8301H429.67L423.44 53.8701Z" fill="black"/>
<path d="M443.56 69.5298V16.8398C443.56 12.2198 445.73 10.0098 451.7 10.0098C457.67 10.0098 459.84 12.2198 459.84 16.8398V33.3698H453.29V17.5698C453.29 16.3698 452.73 15.9798 451.7 15.9798C450.67 15.9798 450.11 16.3698 450.11 17.5698V68.7998C450.11 69.9998 450.67 70.3898 451.7 70.3898C452.73 70.3898 453.29 69.9998 453.29 68.7998V52.9998H459.84V69.5298C459.84 74.1498 457.67 76.3598 451.7 76.3598C445.73 76.3598 443.56 74.1498 443.56 69.5298Z" fill="black"/>
<path d="M483.06 16.84V69.53C483.06 74.15 480.89 76.36 474.92 76.36C468.95 76.36 466.77 74.15 466.77 69.53V16.84C466.77 12.22 468.94 10 474.91 10C480.88 10 483.06 12.22 483.06 16.84ZM474.92 15.97C473.92 15.97 473.33 16.37 473.33 17.56V68.8C473.33 70 473.89 70.39 474.92 70.39C475.95 70.39 476.51 70 476.51 68.8V17.56C476.51 16.37 475.95 15.97 474.92 15.97Z" fill="black"/>
<path d="M490.22 68.3501H496.77V75.5301H490.22V68.3501Z" fill="black"/>
<rect x="207" y="84" width="286.033" height="59.4527" rx="25.4323" fill="#A67B3A"/>
<path d="M241.344 124.727L239.806 119.675H232.069L230.531 124.727H225.683L233.172 103.419H238.673L246.192 124.727H241.344ZM238.731 115.902L237.193 110.967C237.096 110.638 236.966 110.217 236.801 109.704C236.646 109.181 236.487 108.654 236.322 108.122C236.167 107.58 236.041 107.11 235.945 106.714C235.848 107.11 235.712 107.604 235.538 108.194C235.374 108.775 235.214 109.326 235.059 109.849C234.904 110.371 234.793 110.744 234.725 110.967L233.201 115.902H238.731ZM266.484 113.913C266.484 116.303 266.024 118.301 265.105 119.908C264.195 121.504 262.874 122.709 261.142 123.522C259.41 124.325 257.325 124.727 254.886 124.727H248.877V103.506H255.54C257.765 103.506 259.696 103.903 261.331 104.696C262.966 105.48 264.234 106.646 265.134 108.194C266.034 109.733 266.484 111.639 266.484 113.913ZM261.81 114.029C261.81 112.462 261.578 111.175 261.113 110.168C260.659 109.152 259.981 108.402 259.081 107.918C258.191 107.435 257.088 107.193 255.772 107.193H253.377V121.011H255.307C257.504 121.011 259.134 120.425 260.199 119.254C261.273 118.084 261.81 116.342 261.81 114.029ZM279.866 124.727L274.757 108.078H274.627C274.646 108.475 274.675 109.075 274.714 109.878C274.762 110.671 274.806 111.518 274.844 112.418C274.883 113.318 274.902 114.131 274.902 114.856V124.727H270.882V103.506H277.007L282.029 119.733H282.116L287.443 103.506H293.568V124.727H289.374V114.682C289.374 114.015 289.383 113.245 289.403 112.374C289.432 111.504 289.466 110.676 289.504 109.892C289.543 109.099 289.572 108.504 289.591 108.107H289.461L283.989 124.727H279.866ZM298.924 124.727V103.506H303.424V124.727H298.924ZM327.591 124.727H321.872L312.641 108.673H312.51C312.549 109.341 312.583 110.013 312.612 110.691C312.641 111.368 312.67 112.045 312.699 112.723C312.728 113.39 312.757 114.063 312.786 114.74V124.727H308.765V103.506H314.441L323.658 119.4H323.759C323.74 118.742 323.716 118.088 323.687 117.44C323.658 116.792 323.629 116.143 323.6 115.495C323.58 114.847 323.561 114.198 323.542 113.55V103.506H327.591V124.727ZM332.947 124.727V103.506H337.447V124.727H332.947ZM355.315 118.834C355.315 120.091 355.01 121.185 354.4 122.114C353.79 123.043 352.9 123.759 351.729 124.262C350.568 124.765 349.155 125.017 347.491 125.017C346.756 125.017 346.035 124.968 345.328 124.872C344.632 124.775 343.959 124.635 343.311 124.451C342.672 124.257 342.062 124.02 341.482 123.74V119.559C342.488 120.004 343.533 120.406 344.617 120.764C345.701 121.122 346.775 121.301 347.839 121.301C348.575 121.301 349.165 121.204 349.61 121.011C350.065 120.817 350.394 120.551 350.597 120.212C350.8 119.874 350.902 119.487 350.902 119.051C350.902 118.519 350.723 118.064 350.365 117.687C350.007 117.309 349.513 116.956 348.884 116.627C348.265 116.298 347.564 115.945 346.78 115.568C346.286 115.335 345.749 115.055 345.169 114.726C344.588 114.387 344.036 113.976 343.514 113.492C342.991 113.008 342.561 112.423 342.222 111.736C341.893 111.039 341.729 110.207 341.729 109.239C341.729 107.972 342.019 106.888 342.6 105.988C343.18 105.088 344.007 104.401 345.082 103.927C346.165 103.443 347.443 103.201 348.913 103.201C350.017 103.201 351.067 103.332 352.063 103.593C353.07 103.845 354.119 104.212 355.213 104.696L353.761 108.194C352.784 107.797 351.908 107.493 351.134 107.28C350.36 107.057 349.571 106.946 348.768 106.946C348.207 106.946 347.728 107.038 347.331 107.222C346.935 107.396 346.635 107.647 346.431 107.976C346.228 108.296 346.127 108.668 346.127 109.094C346.127 109.597 346.272 110.023 346.562 110.371C346.862 110.71 347.307 111.039 347.897 111.358C348.497 111.678 349.242 112.05 350.133 112.476C351.216 112.989 352.141 113.526 352.905 114.087C353.679 114.639 354.274 115.292 354.69 116.047C355.106 116.792 355.315 117.721 355.315 118.834ZM367.347 124.727H362.848V107.251H357.085V103.506H373.11V107.251H367.347V124.727ZM382.559 103.506C384.484 103.506 386.071 103.738 387.32 104.203C388.578 104.667 389.511 105.369 390.121 106.307C390.731 107.246 391.035 108.431 391.035 109.863C391.035 110.831 390.852 111.678 390.484 112.403C390.116 113.129 389.632 113.744 389.032 114.247C388.432 114.75 387.784 115.161 387.087 115.481L393.329 124.727H388.336L383.27 116.584H380.875V124.727H376.375V103.506H382.559ZM382.239 107.193H380.875V112.926H382.327C383.817 112.926 384.881 112.679 385.52 112.186C386.168 111.683 386.492 110.947 386.492 109.98C386.492 108.973 386.144 108.257 385.447 107.831C384.76 107.406 383.691 107.193 382.239 107.193ZM408.99 124.727L407.452 119.675H399.715L398.177 124.727H393.329L400.818 103.419H406.32L413.838 124.727H408.99ZM406.378 115.902L404.839 110.967C404.742 110.638 404.612 110.217 404.447 109.704C404.292 109.181 404.133 108.654 403.968 108.122C403.813 107.58 403.688 107.11 403.591 106.714C403.494 107.11 403.359 107.604 403.184 108.194C403.02 108.775 402.86 109.326 402.705 109.849C402.551 110.371 402.439 110.744 402.372 110.967L400.848 115.902H406.378ZM424.71 124.727H420.21V107.251H414.448V103.506H430.472V107.251H424.71V124.727ZM452.999 114.087C452.999 115.723 452.796 117.213 452.39 118.558C451.983 119.893 451.364 121.045 450.532 122.012C449.709 122.98 448.664 123.725 447.397 124.248C446.129 124.76 444.629 125.017 442.897 125.017C441.165 125.017 439.665 124.76 438.397 124.248C437.13 123.725 436.08 122.98 435.248 122.012C434.425 121.045 433.811 119.888 433.404 118.543C432.998 117.198 432.795 115.703 432.795 114.058C432.795 111.862 433.153 109.95 433.869 108.325C434.594 106.689 435.707 105.422 437.207 104.522C438.707 103.622 440.613 103.172 442.926 103.172C445.229 103.172 447.121 103.622 448.601 104.522C450.091 105.422 451.195 106.689 451.911 108.325C452.636 109.96 452.999 111.881 452.999 114.087ZM437.512 114.087C437.512 115.568 437.696 116.845 438.063 117.919C438.441 118.984 439.026 119.806 439.82 120.387C440.613 120.958 441.639 121.243 442.897 121.243C444.174 121.243 445.21 120.958 446.003 120.387C446.797 119.806 447.372 118.984 447.73 117.919C448.098 116.845 448.282 115.568 448.282 114.087C448.282 111.862 447.866 110.11 447.034 108.833C446.201 107.556 444.832 106.917 442.926 106.917C441.658 106.917 440.623 107.207 439.82 107.788C439.026 108.359 438.441 109.181 438.063 110.255C437.696 111.32 437.512 112.597 437.512 114.087ZM463.581 103.506C465.506 103.506 467.093 103.738 468.341 104.203C469.599 104.667 470.533 105.369 471.143 106.307C471.752 107.246 472.057 108.431 472.057 109.863C472.057 110.831 471.873 111.678 471.506 112.403C471.138 113.129 470.654 113.744 470.054 114.247C469.454 114.75 468.806 115.161 468.109 115.481L474.351 124.727H469.357L464.292 116.584H461.897V124.727H457.397V103.506H463.581ZM463.261 107.193H461.897V112.926H463.348C464.838 112.926 465.903 112.679 466.542 112.186C467.19 111.683 467.514 110.947 467.514 109.98C467.514 108.973 467.166 108.257 466.469 107.831C465.782 107.406 464.713 107.193 463.261 107.193Z" fill="white"/>
</g>
<defs>
<clipPath id="clip0_690_2723">
<rect width="504" height="159.47" fill="white"/>
</clipPath>
</defs>
</svg>
