<svg width="169" height="160" viewBox="0 0 169 160" fill="none" xmlns="http://www.w3.org/2000/svg">
<path d="M168.9 0H0V159.47H168.9V0Z" fill="#A67B3A"/>
<path d="M159.37 9.52002H9.52002V149.94H159.37V9.52002Z" fill="white"/>
<path d="M152.23 16.6699H16.67V142.81H152.23V16.6699Z" fill="#A67B3A"/>
<path d="M114.23 90.5299C114.23 90.5299 131.86 86.8799 131.86 72.8999C131.86 58.9199 118.08 55.0799 110.99 55.0799H96.87L95.31 32.6299H33.84L32.24 55.6299H34.9C34.9 55.6299 37.18 43.6999 41.29 39.3999C43.8618 36.7896 47.2642 35.1591 50.91 34.7899H59.52V98.4399C59.5516 99.5805 59.3526 100.716 58.9351 101.778C58.5175 102.84 57.89 103.806 57.09 104.62C56.8775 104.823 56.6502 105.01 56.41 105.18C54.51 106.47 49.8 106.54 48.28 106.54V108.14H80.88V106.54C79.36 106.54 74.64 106.47 72.75 105.18C72.5079 105.013 72.2804 104.826 72.07 104.62C71.2668 103.808 70.6365 102.842 70.2171 101.78C69.7977 100.718 69.598 99.5814 69.63 98.4399V34.8099H78.24C81.8884 35.1802 85.2936 36.8103 87.87 39.4199C91.44 43.1599 93.62 52.6699 94.13 55.0799H78.56V56.9099C78.56 56.9099 81.56 56.2999 83.12 57.5899C84.68 58.8799 105.4 90.3799 105.4 90.3799H87.56V122.38C87.56 122.38 86.78 128.28 82.17 128.33H78.56V130.14H115.4C115.4 130.14 136.93 127.94 136.93 108.89C136.93 91.6099 114.23 90.5499 114.23 90.5499M95.64 56.5499C96.7 56.5499 100.43 56.6099 105 56.6399C107.169 56.6179 109.307 57.1513 111.212 58.1892C113.116 59.2272 114.723 60.7353 115.88 62.5699C117.369 65.1231 118.331 67.9487 118.71 70.8799C119.387 76.2462 118.023 81.671 114.89 86.0799L95.64 56.5499ZM105.93 128.79C104.081 128.846 102.279 128.203 100.883 126.989C99.4871 125.775 98.6005 124.079 98.4 122.24V91.8199H107.01C108.18 91.8199 116.31 91.9199 121.12 98.2399C123.343 101.327 124.466 105.069 124.31 108.87C124.31 125.43 112.92 128.78 105.98 128.78" fill="white"/>
</svg>
