<svg width="356" height="235" viewBox="0 0 356 235" fill="none" xmlns="http://www.w3.org/2000/svg">
<rect width="356" height="234.406" fill="#F2F2F2"/>
<g clip-path="url(#clip0_690_2814)">
<path d="M76.5 85.0874V149.322H144.529V85.0874H76.5ZM140.691 145.504H80.3385V88.9259H140.691V145.504Z" fill="#9C9C9C"/>
<path d="M122.779 119.754L115.026 107.86C115.453 107.86 116.955 107.885 118.792 107.897C119.665 107.888 120.527 108.103 121.294 108.521C122.061 108.939 122.708 109.546 123.174 110.285C123.774 111.313 124.161 112.452 124.314 113.632C124.585 115.793 124.038 117.977 122.779 119.754Z" fill="#9C9C9C"/>
<path d="M125.264 124.656C126.161 125.899 126.615 127.406 126.553 128.938C126.553 135.608 121.961 136.957 119.166 136.957C118.419 136.986 117.688 136.73 117.122 136.241C116.557 135.752 116.197 135.066 116.117 134.323V122.07H119.597C120.052 122.07 123.331 122.111 125.264 124.656Z" fill="#9C9C9C"/>
<path d="M83.2144 91.8018V142.608H137.815V91.8018H83.2144ZM122.981 137.497H108.142V136.772H109.596C111.453 136.772 111.771 134.375 111.771 134.375V121.486H118.961C118.961 121.486 110.591 108.799 109.979 108.279C109.367 107.76 108.142 108.006 108.142 108.006V107.272H114.418C114.212 106.302 113.33 102.471 111.892 100.965C110.856 99.9136 109.486 99.2569 108.017 99.1081H104.545V124.745C104.533 125.205 104.613 125.662 104.782 126.09C104.951 126.518 105.205 126.907 105.528 127.234C105.613 127.317 105.705 127.392 105.802 127.46C106.567 127.979 108.464 128.007 109.077 128.007V128.652H95.9462V128.007C96.5584 128.007 98.4555 127.979 99.2207 127.46C99.3183 127.392 99.4099 127.317 99.4946 127.234C99.8181 126.907 100.072 126.518 100.241 126.09C100.41 125.662 100.49 125.205 100.477 124.745V99.1081H97.0055C95.537 99.2569 94.1666 99.9136 93.1307 100.965C91.4794 102.697 90.561 107.502 90.561 107.502H89.4896L90.13 98.2381H114.893L115.517 107.281H121.208C124.064 107.281 129.614 108.827 129.614 114.458C129.614 120.089 122.513 121.559 122.513 121.559C122.513 121.559 131.652 121.986 131.652 128.946C131.652 136.611 122.981 137.497 122.981 137.497Z" fill="#9C9C9C"/>
<path d="M168.877 106.858H167.153V130.513H164.511V106.858H162.787V104.441H168.877V106.858Z" fill="#9C9C9C"/>
<path d="M174.153 104.453V130.513H171.515V104.453H174.153Z" fill="#9C9C9C"/>
<path d="M176.792 104.457H180.07C182.487 104.457 183.184 105.347 183.184 107.208V114.929C183.184 115.956 182.97 116.581 182.378 116.943C183.079 117.257 183.365 117.861 183.365 118.925V127.786C183.365 129.647 182.487 130.537 180.086 130.537H176.792V104.457ZM180.07 115.735C180.473 115.735 180.711 115.578 180.711 115.094V107.502C180.711 107.019 180.485 106.862 180.07 106.862H179.43V115.723L180.07 115.735ZM180.07 128.124C180.473 128.124 180.711 127.967 180.711 127.484V118.764C180.711 118.28 180.485 118.123 180.07 118.123H179.43V128.108L180.07 128.124Z" fill="#9C9C9C"/>
<path d="M185.733 104.457H191.139V106.874H188.371V115.735H190.788V118.151H188.371V128.136H191.167V130.553H185.733V104.457Z" fill="#9C9C9C"/>
<path d="M199.077 106.858H197.354V130.513H194.711V106.858H192.987V104.441H199.077V106.858Z" fill="#9C9C9C"/>
<path d="M210.468 130.517L209.453 119.767H209.014V130.517H206.376V104.457H209.654C212.071 104.457 212.937 105.347 212.937 107.208V117.016C212.937 118.087 212.643 118.836 211.938 119.279L213.118 130.513L210.468 130.517ZM209.014 117.362H209.654C210.057 117.362 210.295 117.205 210.295 116.722V107.502C210.295 107.019 210.069 106.862 209.654 106.862H209.014V117.362Z" fill="#9C9C9C"/>
<path d="M214.83 104.457H220.239V106.874H217.472V115.735H219.889V118.151H217.472V128.136H220.267V130.553H214.83V104.457Z" fill="#9C9C9C"/>
<path d="M226.386 123.231H225.085L224.722 130.513H221.943L224.545 104.453H226.962L229.564 130.513H226.772L226.386 123.231ZM226.265 120.814L225.737 110.463L225.206 120.826L226.265 120.814Z" fill="#9C9C9C"/>
<path d="M236.705 128.108V130.525H231.634V104.453H234.272V128.108H236.705Z" fill="#9C9C9C"/>
<path d="M243.411 106.858H241.687V130.513H239.049V106.858H237.321V104.441H243.411V106.858Z" fill="#9C9C9C"/>
<path d="M249.964 121.789V130.513H247.326V121.789L244.837 104.469H247.628L248.643 117.878L249.694 104.453H252.474L249.964 121.789Z" fill="#9C9C9C"/>
<path d="M258.068 128.096V106.874C258.068 105.013 258.942 104.123 261.347 104.123C263.751 104.123 264.625 105.013 264.625 106.874V113.531H261.987V107.168C261.987 106.684 261.762 106.527 261.347 106.527C260.932 106.527 260.706 106.684 260.706 107.168V127.802C260.706 128.285 260.932 128.442 261.347 128.442C261.762 128.442 261.987 128.285 261.987 127.802V121.438H264.625V128.096C264.625 129.957 263.751 130.847 261.347 130.847C258.942 130.847 258.068 129.957 258.068 128.096Z" fill="#9C9C9C"/>
<path d="M273.978 106.874V128.096C273.978 129.957 273.104 130.847 270.699 130.847C268.295 130.847 267.417 129.957 267.417 128.096V106.874C267.417 105.013 268.291 104.119 270.695 104.119C273.1 104.119 273.978 105.013 273.978 106.874ZM270.699 106.523C270.296 106.523 270.059 106.684 270.059 107.164V127.802C270.059 128.285 270.284 128.442 270.699 128.442C271.114 128.442 271.34 128.285 271.34 127.802V107.164C271.34 106.684 271.114 106.523 270.699 106.523Z" fill="#9C9C9C"/>
<path d="M276.862 127.621H279.5V130.513H276.862V127.621Z" fill="#9C9C9C"/>
</g>
<defs>
<clipPath id="clip0_690_2814">
<rect width="203" height="64.231" fill="white" transform="translate(76.5 85.0874)"/>
</clipPath>
</defs>
</svg>
