<svg width="23" height="23" viewBox="0 0 23 23" fill="none" xmlns="http://www.w3.org/2000/svg">
<path d="M17.4286 4C16.4818 4 15.7143 4.76751 15.7143 5.71429V19.4286C15.7143 20.3753 16.4818 21.1429 17.4286 21.1429H18.5714C19.5182 21.1429 20.2857 20.3753 20.2857 19.4286V5.71429C20.2857 4.76751 19.5182 4 18.5714 4H17.4286Z" fill="#5C5F62"/>
<path d="M8.85714 10.2857C8.85714 9.33894 9.62465 8.57143 10.5714 8.57143H11.7143C12.6611 8.57143 13.4286 9.33894 13.4286 10.2857V19.4286C13.4286 20.3753 12.6611 21.1429 11.7143 21.1429H10.5714C9.62465 21.1429 8.85714 20.3753 8.85714 19.4286V10.2857Z" fill="#5C5F62"/>
<path d="M2 14.8571C2 13.9104 2.76751 13.1429 3.71429 13.1429H4.85714C5.80392 13.1429 6.57143 13.9104 6.57143 14.8571V19.4286C6.57143 20.3753 5.80392 21.1429 4.85714 21.1429H3.71429C2.76751 21.1429 2 20.3753 2 19.4286V14.8571Z" fill="#5C5F62"/>
</svg>
