<svg width="23" height="23" viewBox="0 0 23 23" fill="none" xmlns="http://www.w3.org/2000/svg">
<path d="M14.8571 4.57143H18.2857V6.85714H14.8571V4.57143Z" fill="#5C5F62"/>
<path d="M14.8571 9.14286H18.2857V11.4286H14.8571V9.14286Z" fill="#5C5F62"/>
<path d="M8 4.57143H4.57143V6.85714H8V4.57143Z" fill="#5C5F62"/>
<path d="M8 9.14286H4.57143V11.4286H8V9.14286Z" fill="#5C5F62"/>
<path d="M8 13.7143H4.57143V16H8V13.7143Z" fill="#5C5F62"/>
<path fill-rule="evenodd" clip-rule="evenodd" d="M21.1429 1.35879e-06C22.0896 1.35879e-06 22.8571 0.767514 22.8571 1.71429V18.8571C22.8571 19.8039 22.0896 20.5714 21.1429 20.5714H13.7143C13.4112 20.5714 13.1205 20.6918 12.9062 20.9062C12.6918 21.1205 12.5714 21.4112 12.5714 21.7143C12.5714 22.0174 12.451 22.3081 12.2367 22.5224C12.0224 22.7367 11.7317 22.8571 11.4286 22.8571C11.1255 22.8571 10.8348 22.7367 10.6204 22.5224C10.4061 22.3081 10.2857 22.0174 10.2857 21.7143C10.2857 21.4112 10.1653 21.1205 9.95098 20.9062C9.73665 20.6918 9.44596 20.5714 9.14286 20.5714H1.71429C0.767512 20.5714 0 19.8039 0 18.8571V1.71429C0 0.767515 0.767512 1.35879e-06 1.71429 1.35879e-06H9.14286C9.98678 -0.000751201 10.8011 0.311122 11.4286 0.875431C12.0354 0.331431 12.8366 1.35879e-06 13.7143 1.35879e-06H21.1429ZM13.7143 18.2857H20.5714V2.28572H13.7143C13.4112 2.28572 13.1205 2.40612 12.9062 2.62045C12.6918 2.83478 12.5714 3.12547 12.5714 3.42857V18.4903C12.9291 18.3623 13.312 18.2857 13.7143 18.2857ZM2.28571 18.2857H9.14286C9.53275 18.2875 9.9194 18.3567 10.2857 18.4903V3.42857C10.2857 3.12547 10.1653 2.83478 9.95098 2.62045C9.73665 2.40612 9.44596 2.28572 9.14286 2.28572H2.28571V18.2857Z" fill="#5C5F62"/>
</svg>
