<svg width="23" height="23" viewBox="0 0 23 23" fill="none" xmlns="http://www.w3.org/2000/svg">
<path fill-rule="evenodd" clip-rule="evenodd" d="M19.4 16.9424C19.8714 17.1252 20.4286 16.851 20.4286 16.4281V1.57187C20.4286 1.14904 19.8714 0.874766 19.4 1.05761C18.6198 1.5263 17.9015 2.00655 17.2073 2.47074C14.7616 4.10582 12.614 5.54167 9.11114 5.57143L4.42857 5.5719C2.53143 5.5719 1 7.10333 1 9.00047C1 10.8976 2.53143 12.429 4.42857 12.429H9C12.5694 12.429 14.7365 13.8778 17.2083 15.5301C17.9023 15.994 18.6203 16.474 19.4 16.9424ZM10.1429 20.429H9.24001C8.74858 20.429 8.31429 20.1205 8.16572 19.6633L5.65144 14.7148H10.1429C10.774 14.7148 11.2857 15.2264 11.2857 15.8576V19.2862C11.2857 19.9148 10.7714 20.429 10.1429 20.429Z" fill="#5C5F62"/>
</svg>
