<svg width="23" height="23" viewBox="0 0 23 23" fill="none" xmlns="http://www.w3.org/2000/svg">
<path fill-rule="evenodd" clip-rule="evenodd" d="M7.23065 12.5916H10.7438C10.257 13.6783 9.93996 14.9146 9.8014 16.1931C7.34426 16.7908 5.40517 18.7122 4.78218 21.1593C4.5486 22.0768 5.3381 22.8562 6.28488 22.8562H16.5706C17.5174 22.8562 18.3069 22.0768 18.0733 21.1593C17.3708 18.4001 14.9952 16.3092 12.0903 16.0307C12.2874 14.2902 13.0482 12.6619 14.2569 11.3939L17.8384 10.6525C20.0056 10.1963 21.6025 8.59939 21.9446 6.54628L22.8571 1.41349C22.8571 1.08854 22.7993 0.821456 22.6836 0.571019C22.5886 0.36556 22.422 0.198133 22.2122 0.113195C21.931 -0.000674878 21.6226 -0.0380147 21.3743 0.0447471L16.1275 1.86974C13.9603 2.55411 12.5916 4.49316 12.5916 6.66034V9.85408L12.3634 10.105L11.6791 6.88846C11.2228 4.72129 9.39783 3.12442 7.11659 2.66817L1.29943 1.75568C0.885511 1.70214 0.500995 1.75568 0.272871 2.09786C0.044747 2.44005 -0.0693149 2.8963 0.0447471 3.23848L1.9838 8.94158C2.78223 11.1088 4.83535 12.5916 7.23065 12.5916ZM16.6978 4.03692L20.2337 2.8963L19.5493 6.09003C19.3212 7.23065 18.4087 8.14315 17.2681 8.37127L14.7587 8.94158V6.66034C14.7587 5.51972 15.5572 4.3791 16.6978 4.03692ZM4.15098 8.25721L2.8963 4.3791L6.7744 4.94941C8.14315 5.17754 9.28377 6.20409 9.51189 7.45877L9.96814 10.3103H7.23065C5.86191 10.3103 4.60723 9.51189 4.15098 8.25721Z" fill="#5C5F62"/>
</svg>
