<svg width="23" height="23" viewBox="0 0 23 23" fill="none" xmlns="http://www.w3.org/2000/svg">
<path fill-rule="evenodd" clip-rule="evenodd" d="M22.8571 11.4286C22.8571 17.7365 17.7468 22.8508 11.4404 22.8571L11.4148 22.8571C5.10931 22.8497 0 17.7358 0 11.4286C0 5.11675 5.11675 0 11.4286 0C17.7404 0 22.8571 5.11675 22.8571 11.4286ZM3.50887 6.85714C4.59018 4.98788 6.31428 3.53697 8.37894 2.80667C8.31669 2.89558 8.2543 2.9868 8.19194 3.08034C7.5281 4.07611 6.86628 5.33589 6.39387 6.85714H3.50887ZM2.57375 9.14286C2.38572 9.87342 2.28571 10.6393 2.28571 11.4286C2.28571 12.2178 2.38572 12.9837 2.57375 13.7143H5.87738C5.77288 12.9956 5.71429 12.2336 5.71429 11.4286C5.71429 10.6235 5.77288 9.86157 5.87738 9.14286H2.57375ZM8.1916 9.14286C8.06992 9.85129 8 10.6131 8 11.4286C8 12.244 8.06992 13.0059 8.1916 13.7143H14.6655C14.7872 13.0059 14.8571 12.244 14.8571 11.4286C14.8571 10.6131 14.7872 9.85129 14.6655 9.14286H8.1916ZM16.9798 9.14286C17.0843 9.86157 17.1429 10.6235 17.1429 11.4286C17.1429 12.2336 17.0843 12.9956 16.9798 13.7143H20.2834C20.4714 12.9837 20.5714 12.2178 20.5714 11.4286C20.5714 10.6393 20.4714 9.87342 20.2834 9.14286H16.9798ZM19.3483 6.85714H16.4633C15.9909 5.33589 15.329 4.07611 14.6652 3.08034C14.6028 2.9868 14.5405 2.89558 14.4782 2.80667C16.5429 3.53697 18.267 4.98788 19.3483 6.85714ZM14.0483 6.85714H8.80885C9.17947 5.86877 9.6373 5.03293 10.0938 4.34823C10.5755 3.62567 11.0554 3.0722 11.4286 2.68894C11.8017 3.0722 12.2817 3.62567 12.7634 4.34823C13.2198 5.03293 13.6777 5.86877 14.0483 6.85714ZM12.7634 18.5089C13.2198 17.8242 13.6777 16.9884 14.0483 16H8.80885C9.17947 16.9884 9.6373 17.8242 10.0938 18.5089C10.5755 19.2315 11.0554 19.7849 11.4286 20.1682C11.8017 19.7849 12.2817 19.2315 12.7634 18.5089ZM3.50887 16H6.39387C6.86629 17.5213 7.5281 18.781 8.19194 19.7768C8.2543 19.8703 8.31669 19.9616 8.37894 20.0505C6.31429 19.3202 4.59018 17.8693 3.50887 16ZM14.6652 19.7768C14.6028 19.8703 14.5405 19.9616 14.4782 20.0505C16.5429 19.3202 18.267 17.8693 19.3483 16H16.4633C15.9909 17.5213 15.329 18.781 14.6652 19.7768Z" fill="#5C5F62"/>
</svg>
