<svg width="23" height="23" viewBox="0 0 23 23" fill="none" xmlns="http://www.w3.org/2000/svg">
<path d="M16.4147 5.96474C16.4147 8.62781 14.2558 10.7867 11.5928 10.7867C8.92968 10.7867 6.77084 8.62781 6.77084 5.96474C6.77084 3.30167 8.92968 1.14282 11.5928 1.14282C14.2558 1.14282 16.4147 3.30167 16.4147 5.96474Z" fill="#5C5F62"/>
<path d="M3.05096 16.5359C4.63396 15.2909 7.78437 13.2759 11.5928 13.2759C15.4011 13.2759 18.5515 15.2909 20.1345 16.5359C20.8411 17.0916 21.0616 18.0311 20.7825 18.8856L20.4018 20.0516C20.078 21.0433 19.1531 21.7142 18.1099 21.7142H5.07559C4.0324 21.7142 3.10753 21.0433 2.78372 20.0516L2.40297 18.8856C2.12394 18.0311 2.34436 17.0916 3.05096 16.5359Z" fill="#5C5F62"/>
</svg>
